HIERARCHY
ROOT Hip
{
  OFFSET 0.000000 0.000000 0.000000
  CHANNELS 6 Xposition Yposition Zposition Zrotation Xrotation Yrotation
  JOINT RHip
  {
    OFFSET 0.000000 0.000000 0.000000
    CHANNELS 3 Xposition Yposition Zposition
    End Site
    {
      OFFSET 0.000000 0.100000 0.000000
    }
  }
  JOINT RKnee
  {
    OFFSET 0.000000 0.000000 0.000000
    CHANNELS 3 Xposition Yposition Zposition
    End Site
    {
      OFFSET 0.000000 0.100000 0.000000
    }
  }
  JOINT RFoot
  {
    OFFSET 0.000000 0.000000 0.000000
    CHANNELS 3 Xposition Yposition Zposition
    End Site
    {
      OFFSET 0.000000 0.100000 0.000000
    }
  }
  JOINT LHip
  {
    OFFSET 0.000000 0.000000 0.000000
    CHANNELS 3 Xposition Yposition Zposition
    End Site
    {
      OFFSET 0.000000 0.100000 0.000000
    }
  }
  JOINT LKnee
  {
    OFFSET 0.000000 0.000000 0.000000
    CHANNELS 3 Xposition Yposition Zposition
    End Site
    {
      OFFSET 0.000000 0.100000 0.000000
    }
  }
  JOINT LFoot
  {
    OFFSET 0.000000 0.000000 0.000000
    CHANNELS 3 Xposition Yposition Zposition
    End Site
    {
      OFFSET 0.000000 0.100000 0.000000
    }
  }
  JOINT Spine
  {
    OFFSET 0.000000 0.000000 0.000000
    CHANNELS 3 Xposition Yposition Zposition
    End Site
    {
      OFFSET 0.000000 0.100000 0.000000
    }
  }
  JOINT Thorax
  {
    OFFSET 0.000000 0.000000 0.000000
    CHANNELS 3 Xposition Yposition Zposition
    End Site
    {
      OFFSET 0.000000 0.100000 0.000000
    }
  }
  JOINT Nose
  {
    OFFSET 0.000000 0.000000 0.000000
    CHANNELS 3 Xposition Yposition Zposition
    End Site
    {
      OFFSET 0.000000 0.100000 0.000000
    }
  }
  JOINT Head
  {
    OFFSET 0.000000 0.000000 0.000000
    CHANNELS 3 Xposition Yposition Zposition
    End Site
    {
      OFFSET 0.000000 0.100000 0.000000
    }
  }
  JOINT LShoulder
  {
    OFFSET 0.000000 0.000000 0.000000
    CHANNELS 3 Xposition Yposition Zposition
    End Site
    {
      OFFSET 0.000000 0.100000 0.000000
    }
  }
  JOINT LElbow
  {
    OFFSET 0.000000 0.000000 0.000000
    CHANNELS 3 Xposition Yposition Zposition
    End Site
    {
      OFFSET 0.000000 0.100000 0.000000
    }
  }
  JOINT LWrist
  {
    OFFSET 0.000000 0.000000 0.000000
    CHANNELS 3 Xposition Yposition Zposition
    End Site
    {
      OFFSET 0.000000 0.100000 0.000000
    }
  }
  JOINT RShoulder
  {
    OFFSET 0.000000 0.000000 0.000000
    CHANNELS 3 Xposition Yposition Zposition
    End Site
    {
      OFFSET 0.000000 0.100000 0.000000
    }
  }
  JOINT RElbow
  {
    OFFSET 0.000000 0.000000 0.000000
    CHANNELS 3 Xposition Yposition Zposition
    End Site
    {
      OFFSET 0.000000 0.100000 0.000000
    }
  }
  JOINT RWrist
  {
    OFFSET 0.000000 0.000000 0.000000
    CHANNELS 3 Xposition Yposition Zposition
    End Site
    {
      OFFSET 0.000000 0.100000 0.000000
    }
  }
}
MOTION
Frames: 14
Frame Time: 0.033333
-0.000000 0.877026 0.000027 0.000000 0.000000 0.000000 0.038444 -0.001517 0.046258 0.094852 -0.391602 0.006512 0.060626 -0.785989 0.082977 -0.038444 0.001542 -0.046304 0.039281 -0.371105 -0.021222 -0.016681 -0.773256 0.018291 0.039278 0.203808 0.026159 0.092999 0.439825 0.043277 0.142051 0.510752 0.041613 0.117156 0.582681 0.081242 0.065983 0.428618 -0.016413 0.147383 0.278978 -0.026044 0.168507 0.278183 0.075387 0.117501 0.409265 0.082501 0.180433 0.241610 0.065991 0.216782 0.256705 -0.083820
-0.000000 0.877026 0.000029 0.000000 0.000000 0.000000 0.036766 -0.000012 0.050005 0.093092 -0.407481 0.017439 0.061269 -0.813779 0.099383 -0.036766 0.000036 -0.050053 0.033798 -0.388359 -0.027918 -0.016593 -0.805549 0.016895 0.041938 0.211315 0.020218 0.097968 0.450444 0.032517 0.148950 0.526527 0.030821 0.129468 0.600104 0.067351 0.071035 0.437742 -0.027728 0.157069 0.281540 -0.032640 0.178166 0.271357 0.075409 0.121029 0.417491 0.077346 0.186385 0.241959 0.069192 0.214281 0.259687 -0.088897
-0.000000 0.877026 0.000029 0.000000 0.000000 0.000000 0.037249 0.000084 0.052768 0.092888 -0.415037 0.021263 0.057728 -0.824704 0.103449 -0.037249 -0.000061 -0.052817 0.028442 -0.396858 -0.039570 -0.018374 -0.822507 0.002282 0.044667 0.214444 0.015388 0.103838 0.454202 0.024514 0.157165 0.532567 0.023536 0.140618 0.605300 0.060057 0.076425 0.443522 -0.036343 0.173171 0.292267 -0.035589 0.192172 0.283247 0.084546 0.126871 0.419890 0.073330 0.197392 0.246489 0.075138 0.222837 0.272219 -0.091887
-0.000000 0.877026 0.000029 0.000000 0.000000 0.000000 0.039634 -0.001316 0.054039 0.095198 -0.414874 0.018310 0.053290 -0.819102 0.095389 -0.039634 0.001340 -0.054086 0.024932 -0.396526 -0.051212 -0.020137 -0.822757 -0.018624 0.046624 0.213039 0.013328 0.109005 0.451244 0.021670 0.164574 0.528651 0.021978 0.147795 0.598624 0.061574 0.080269 0.445119 -0.040018 0.189834 0.306482 -0.036482 0.205856 0.309148 0.094805 0.133672 0.416212 0.072158 0.210761 0.250971 0.080334 0.239408 0.290886 -0.097783
-0.000000 0.877026 0.000031 0.000000 0.000000 0.000000 0.042652 -0.002458 0.054917 0.097244 -0.420812 0.017740 0.053930 -0.822907 0.095960 -0.042652 0.002481 -0.054967 0.019717 -0.401645 -0.057880 -0.020234 -0.831776 -0.027038 0.046852 0.214265 0.012508 0.110264 0.452810 0.019814 0.166270 0.531147 0.020060 0.149495 0.600197 0.062141 0.078730 0.449575 -0.042636 0.191986 0.311366 -0.044462 0.208612 0.314972 0.085492 0.137669 0.414074 0.072038 0.216025 0.241982 0.078936 0.243282 0.294235 -0.110799
-0.000000 0.877026 0.000032 0.000000 0.000000 0.000000 0.046025 -0.003287 0.054754 0.096384 -0.427716 0.017953 0.053168 -0.829606 0.100890 -0.046026 0.003310 -0.054807 0.012643 -0.407252 -0.062704 -0.020824 -0.842036 -0.031008 0.046261 0.217155 0.011326 0.108784 0.457447 0.017287 0.163147 0.538244 0.015261 0.146356 0.607359 0.060340 0.073945 0.456863 -0.045150 0.184819 0.314059 -0.057187 0.203294 0.307966 0.064761 0.139125 0.412813 0.070517 0.212889 0.224335 0.075061 0.237542 0.286361 -0.118141
-0.000000 0.877026 0.000032 0.000000 0.000000 0.000000 0.049237 -0.004128 0.053712 0.093279 -0.431038 0.017111 0.047120 -0.830375 0.102248 -0.049237 0.004151 -0.053766 0.006456 -0.408290 -0.068236 -0.021710 -0.844711 -0.040723 0.046152 0.219198 0.009871 0.107435 0.461045 0.014557 0.159510 0.543934 0.008999 0.142252 0.612819 0.058440 0.069816 0.464500 -0.047401 0.178246 0.320546 -0.068258 0.198769 0.302437 0.047054 0.140230 0.410281 0.067821 0.207379 0.205281 0.072917 0.232451 0.277257 -0.115226
-0.000000 0.877026 0.000032 0.000000 0.000000 0.000000 0.052266 -0.004834 0.052693 0.089720 -0.433250 0.016373 0.038017 -0.828336 0.103476 -0.052267 0.004857 -0.052746 0.002998 -0.406748 -0.074308 -0.020753 -0.843542 -0.051984 0.046730 0.220268 0.009393 0.107154 0.463205 0.013631 0.157238 0.547279 0.004442 0.139494 0.615712 0.058995 0.067122 0.471980 -0.048561 0.173497 0.328831 -0.075905 0.198092 0.298927 0.035847 0.142218 0.407358 0.066614 0.202335 0.186642 0.071234 0.229199 0.266681 -0.108973
-0.000000 0.877026 0.000030 0.000000 0.000000 0.000000 0.055692 -0.005388 0.052973 0.086542 -0.435843 0.017769 0.026865 -0.826340 0.110741 -0.055693 0.005412 -0.053023 0.003858 -0.404207 -0.079741 -0.015534 -0.841432 -0.056115 0.048615 0.219587 0.012266 0.109307 0.463109 0.021037 0.158940 0.546694 0.009885 0.140329 0.613858 0.070992 0.066975 0.479222 -0.044980 0.173423 0.339023 -0.082432 0.202975 0.300650 0.034862 0.146904 0.405778 0.073880 0.200831 0.175243 0.072676 0.228338 0.258109 -0.100180
-0.000000 0.877026 0.000028 0.000000 0.000000 0.000000 0.058373 -0.005986 0.054936 0.083800 -0.438320 0.021031 0.015974 -0.823435 0.119750 -0.058373 0.006010 -0.054981 0.007810 -0.401018 -0.082212 -0.007948 -0.838460 -0.052062 0.051574 0.217741 0.018033 0.113403 0.461164 0.036382 0.164388 0.543903 0.024856 0.145191 0.608468 0.093204 0.069269 0.485836 -0.036309 0.177668 0.350005 -0.087747 0.211196 0.305760 0.043880 0.153070 0.405099 0.089079 0.200989 0.171567 0.078150 0.228110 0.253778 -0.086441
0.000000 0.877026 0.000027 0.000000 0.000000 0.000000 0.059106 -0.006752 0.056423 0.081320 -0.439109 0.023013 0.008727 -0.817464 0.121911 -0.059106 0.006777 -0.056467 0.009743 -0.397162 -0.083038 -0.004769 -0.833736 -0.049703 0.053412 0.217370 0.021678 0.115735 0.460066 0.046706 0.167645 0.544203 0.033521 0.149147 0.605826 0.107011 0.070190 0.491543 -0.028882 0.176754 0.359256 -0.087526 0.213510 0.306547 0.052221 0.156357 0.402362 0.098203 0.196098 0.164018 0.079029 0.224688 0.246325 -0.074645
0.000000 0.877026 0.000027 0.000000 0.000000 0.000000 0.060293 -0.007645 0.057037 0.079059 -0.438461 0.025058 0.000580 -0.809219 0.123682 -0.060293 0.007671 -0.057080 0.009099 -0.394065 -0.087451 -0.004560 -0.827191 -0.056093 0.053776 0.217764 0.023136 0.116546 0.459786 0.051995 0.168324 0.545088 0.036383 0.150150 0.604791 0.114043 0.068822 0.495934 -0.023826 0.170340 0.366181 -0.087166 0.209386 0.306256 0.053169 0.157971 0.398000 0.102003 0.190748 0.154340 0.076165 0.222171 0.234582 -0.068073
0.000000 0.877026 0.000026 0.000000 0.000000 0.000000 0.062100 -0.008405 0.058081 0.077421 -0.438037 0.029723 -0.009080 -0.801394 0.130440 -0.062100 0.008431 -0.058122 0.008349 -0.392934 -0.093349 -0.004401 -0.821758 -0.065406 0.053554 0.218207 0.024826 0.117054 0.460057 0.057870 0.168843 0.544988 0.040707 0.150196 0.603898 0.122246 0.066456 0.499375 -0.018985 0.163403 0.371067 -0.091023 0.203148 0.307987 0.048337 0.159636 0.394456 0.107073 0.188465 0.148904 0.072119 0.221531 0.224638 -0.067564
0.000000 0.877026 0.000028 0.000000 0.000000 0.000000 0.063343 -0.008849 0.058185 0.075663 -0.439088 0.036012 -0.014886 -0.797304 0.143423 -0.063343 0.008875 -0.058230 0.007150 -0.394550 -0.095090 -0.005120 -0.821964 -0.068063 0.052588 0.220042 0.025092 0.115116 0.462323 0.059684 0.166710 0.547352 0.042168 0.148728 0.605956 0.125189 0.061902 0.503604 -0.016046 0.153709 0.376805 -0.094521 0.193198 0.309006 0.040200 0.159534 0.393374 0.106639 0.184562 0.147683 0.055242 0.214447 0.217822 -0.080888
